<svg width="24" height="18" viewBox="0 0 24 18" fill="none" xmlns="http://www.w3.org/2000/svg">
<path d="M1.5 0C0.671572 0 0 0.67155 0 1.5C0 2.32838 0.671572 3 1.5 3H22.5C23.3284 3 24 2.32838 24 1.5C24 0.67155 23.3284 0 22.5 0H1.5ZM1.5 7.5C0.671572 7.5 0 8.17155 0 9C0 9.82837 0.671572 10.5 1.5 10.5H22.5C23.3284 10.5 24 9.82837 24 9C24 8.17155 23.3284 7.5 22.5 7.5H1.5ZM1.5 15C0.671572 15 0 15.6715 0 16.5C0 17.3284 0.671572 18 1.5 18H22.5C23.3284 18 24 17.3284 24 16.5C24 15.6715 23.3284 15 22.5 15H1.5Z" fill="#DFE1E7"/>
</svg>
