<?xml version="1.0" standalone="no"?>
<!DOCTYPE svg PUBLIC "-//W3C//DTD SVG 1.1//EN"
  "http://www.w3.org/Graphics/SVG/1.1/DTD/svg11.dtd">
<svg version="1.1" xmlns="http://www.w3.org/2000/svg" xmlns:xlink="http://www.w3.org/1999/xlink" width="3840" height="2160" viewBox="-1040.888888888889 -32 1889.7777777777778 1063" id="ccdiagram"><filter id="grayscale"><feColorMatrix type="matrix" values="0.3333 0.3333 0.3333 0 0 0.3333 0.3333 0.3333 0 0 0.3333 0.3333 0.3333 0 0 0 0 0 1 0"></feColorMatrix></filter><defs><style type="text/css">@import url('https://fonts.googleapis.com/css?family=Open+Sans:400,700|Inconsolata:400');</style></defs><g><g style="pointer-events: none;"><g><pattern id="gridPatternMinor" x="0" y="37" width="128" height="74" patternUnits="userSpaceOnUse"><path d="M 0 0 L 128 74" stroke="#eee" stroke-width="1"></path><path d="M 128 0 L 0 74" stroke="#eee" stroke-width="1"></path></pattern><polygon points="0 0, 768 444, -192 999, -960 555" fill="url(#gridPatternMinor)"></polygon></g><polygon points="-960 555, -960 565, -192 1009, -192 999" stroke-linejoin="round" stroke="#54626f" stroke-width="1" fill="#f9f9f9"></polygon><polygon points="-192 1009, 768 454, 768 444, -192 999" stroke-linejoin="round" stroke="#54626f" stroke-width="1" fill="#e2e2e2"></polygon></g><g pointer-events="auto"><g opacity="1"><g><g><polygon points="240 387, 416 488, 416 525, 352 562, 288 562, 112 461, 112 424, 176 387" fill="#000000" opacity="0.2"></polygon><polygon points="240 379, 416 481, 416 518, 352 555, 288 555, 112 453, 112 416, 176 379" fill="#e6e7e8" stroke-width="2" stroke="#818181"></polygon><polygon points="208 398, 384 500, 320 537, 144 435" fill="#e6e7e8" stroke-width="0" stroke="#818181"></polygon></g></g></g><g opacity="1"><g><g><polygon points="48 257, 112 294, 112 331, 48 368, -16 368, -80 331, -80 294, -16 257" fill="#000000" opacity="0.2"></polygon><polygon points="48 250, 112 287, 112 324, 48 361, -16 361, -80 324, -80 287, -16 250" fill="#e6e7e8" stroke-width="2" stroke="#818181"></polygon><polygon points="16 268, 80 305, 16 342, -48 305" fill="#e6e7e8" stroke-width="0" stroke="#818181"></polygon></g></g></g><g opacity="1"><g><g><polygon points="-192 396, -128 433, -128 470, -192 507, -256 507, -320 470, -320 433, -256 396" fill="#000000" opacity="0.2"></polygon><polygon points="-192 389, -128 426, -128 463, -192 500, -256 500, -320 463, -320 426, -256 389" fill="#e6e7e8" stroke-width="2" stroke="#818181"></polygon><polygon points="-224 407, -160 444, -224 481, -288 444" fill="#e6e7e8" stroke-width="0" stroke="#818181"></polygon></g></g></g></g><g style="pointer-events: none;"><g><pattern id="gridPatternMajor" x="0" y="37" width="128" height="74" patternUnits="userSpaceOnUse"><path d="M 64 0 L 128 37 64 74 0 37 z" stroke="#54626f" stroke-width="1" fill="none"></path></pattern><polygon points="0 0, 768 444, -192 999, -960 555" fill="url(#gridPatternMajor)"></polygon></g></g><g pointer-events="auto"></g><g></g><g pointer-events="auto"></g><g></g><g pointer-events="auto"></g><g pointer-events="none"></g><g pointer-events="auto"><g><g cursor="cell"><line x1="-450" y1="575" x2="-384" y2="537" stroke="red" stroke-width="8" opacity="0"></line><line x1="-450" y1="575" x2="-384" y2="537" stroke="#000000" stroke-width="2" stroke-linecap="round"></line><polygon points="-460 580, -434 575, -447 573, -450 565, -460 580" stroke-linejoin="round" fill="#000000" stroke="#000000" stroke-width="1"></polygon></g></g><g><g cursor="cell"><line x1="-384" y1="537" x2="-266" y2="468" stroke="red" stroke-width="8" opacity="0"></line><line x1="-384" y1="537" x2="-266" y2="468" stroke="#000000" stroke-width="2" stroke-linecap="round"></line><polygon points="-256 463, -282 468, -268 470, -265 477, -256 463" stroke-linejoin="round" fill="#000000" stroke="#000000" stroke-width="1"></polygon></g></g><g><g cursor="cell"><line x1="-150" y1="401" x2="-26" y2="329" stroke="red" stroke-width="8" opacity="0"></line><line x1="-150" y1="401" x2="-26" y2="329" stroke="#000000" stroke-width="2" stroke-linecap="round"></line><polygon points="-160 407, -134 402, -148 400, -151 392, -160 407" stroke-linejoin="round" fill="#000000" stroke="#000000" stroke-width="1"></polygon><polygon points="-16 324, -42 329, -28 331, -25 339, -16 324" stroke-linejoin="round" fill="#000000" stroke="#000000" stroke-width="1"></polygon></g></g><g><g cursor="cell"><line x1="178" y1="399" x2="58" y2="329" stroke="red" stroke-width="8" opacity="0"></line><line x1="178" y1="399" x2="58" y2="329" stroke="#000000" stroke-width="2" stroke-linecap="round"></line><polygon points="48 324, 57 339, 60 331, 74 329, 48 324" stroke-linejoin="round" fill="#000000" stroke="#000000" stroke-width="1"></polygon></g></g></g><g pointer-events="auto"><g opacity="1"><g id="0599a33b-7a22-44ad-a397-d3474c5ff8c0" transform="translate(0 0)"><g><polygon points="16 231, 80 268, 16 305, -48 268" fill="#fff"></polygon><polygon points="-48 305, 16 342, 16 305, -48 268" fill="#e6e6e6" stroke="#999"></polygon><polygon points="16 342, 80 305, 80 268, 16 305" fill="#ccc" stroke="#999"></polygon><polygon points="16 231, -48 268, -48 305, 16 342, 80 305, 80 268" fill="none" stroke="#000000" stroke-width="2"></polygon></g></g></g><g opacity="1"><g id="9b82aa27-8ffb-41bc-8aea-4fa9df57552b" transform="translate(0 0)"><svg x="178" y="303" height="148.981" width="91.956" viewBox="0 0 24.33 39.418"><g transform="translate(240.35 -115.335)"><path d="M-240.082 146.018v4.445l6.973 4.025v-4.445z" fill="#d2d2d4" fill-rule="evenodd" stroke-width=".214"></path><path d="M-233.11 150.043l9.858-.003v4.445l-9.857.003z" fill="#d2d2d4" fill-rule="evenodd" stroke-width=".214"></path><path d="M-223.252 150.04l6.967-4.027v4.445l-6.967 4.028z" fill="#b8b8bb" fill-rule="evenodd" stroke-width=".214"></path><path d="M-223.252 150.04v4.445" fill="none" fill-rule="evenodd" stroke="#83838a" stroke-width=".267"></path><path d="M302.99-2468.894l-36.732 47.87-59.823 7.876-47.87-36.732-7.875-59.823 36.732-47.87 59.822-7.876 47.87 36.732z" fill="#848586" stroke="#83838a" stroke-width="2.151" transform="matrix(.0995 .07485 -.12957 .05747 -573.282 269.258)"></path><path d="M-240.082 139.12v4.445l6.973 4.025v-4.445z" fill="#d2d2d4" fill-rule="evenodd" stroke-width=".214"></path><path d="M-233.11 143.145l9.858-.003v4.445l-9.857.003z" fill="#d2d2d4" fill-rule="evenodd" stroke-width=".214"></path><path d="M-223.252 143.143l6.967-4.028v4.445l-6.967 4.028z" fill="#b8b8bb" fill-rule="evenodd" stroke-width=".214"></path><path d="M302.99-2468.894l-36.732 47.87-59.823 7.876-47.87-36.732-7.875-59.823 36.732-47.87 59.822-7.876 47.87 36.732z" fill="#848586" stroke="#83838a" stroke-width="2.151" transform="matrix(.0995 .07485 -.12957 .05747 -573.282 262.36)"></path><path d="M-240.082 132.222v4.445l6.973 4.025v-4.445z" fill="#d2d2d4" fill-rule="evenodd" stroke-width=".214"></path><path d="M-233.11 136.247l9.858-.003v4.445l-9.857.003z" fill="#d2d2d4" fill-rule="evenodd" stroke-width=".214"></path><path d="M-223.252 136.245l6.967-4.028v4.445l-6.967 4.028z" fill="#b8b8bb" fill-rule="evenodd" stroke-width=".214"></path><path d="M302.99-2468.894l-36.732 47.87-59.823 7.876-47.87-36.732-7.875-59.823 36.732-47.87 59.822-7.876 47.87 36.732z" fill="#848586" stroke="#83838a" stroke-width="2.151" transform="matrix(.0995 .07485 -.12957 .05747 -573.282 255.462)"></path><path d="M-240.082 125.324v4.445l6.973 4.025v-4.445z" fill="#d2d2d4" fill-rule="evenodd" stroke-width=".214"></path><path d="M-233.11 129.349l9.858-.003v4.445l-9.857.003z" fill="#d2d2d4" fill-rule="evenodd" stroke-width=".214"></path><path d="M-223.252 129.347l6.967-4.028v4.445l-6.967 4.028z" fill="#b8b8bb" fill-rule="evenodd" stroke-width=".214"></path><path d="M-223.252 129.347l-9.857.002-6.973-4.025-.003-5.694 6.967-4.028 9.857-.002 6.973 4.025.003 5.694z" fill="#ececed" stroke-width="2.151"></path><path d="M-240.082 125.324l6.964 4.074 9.866-.053 6.967-4.026M-233.118 129.398l.008 4.396M-223.252 129.345v4.445" fill="none" fill-rule="evenodd" stroke="#83838a" stroke-width=".267"></path><path d="M-240.085 119.63l.003 10.139 6.972 4.025 9.857-.003 6.966-4.027-.002-10.14-6.972-4.025-9.857.003z" fill="none" fill-rule="evenodd" stroke="#000000" stroke-width=".529"></path><path d="M-223.252 136.242v4.446M-233.11 136.247v4.445" fill="none" fill-rule="evenodd" stroke="#83838a" stroke-width=".267"></path><path d="M-240.082 132.222v4.445l6.973 4.025 9.857-.003 6.966-4.027.002-4.446-6.968 4.026-9.865.054z" fill="none" fill-rule="evenodd" stroke="#000000" stroke-width=".529"></path><path d="M-233.11 143.145v4.445M-223.252 143.141v4.446" fill="none" fill-rule="evenodd" stroke="#83838a" stroke-width=".267"></path><path d="M-240.082 139.12v4.445l6.973 4.025 9.857-.003 6.966-4.026.002-4.446-6.968 4.028-9.857.003z" fill="none" fill-rule="evenodd" stroke="#000000" stroke-width=".529"></path><path d="M-240.082 146.018v4.445l6.973 4.025 9.857-.003 6.967-4.026v-4.445l-6.967 4.026-9.857.003z" fill="none" fill-rule="evenodd" stroke="#000000" stroke-width=".529"></path><path d="M-233.11 150.043v4.445" fill="none" fill-rule="evenodd" stroke="#83838a" stroke-width=".267"></path><circle cx="-9.268" cy="254.217" fill="#4286c5" r="5.832" stroke-width=".534" transform="scale(1.22475 .7071) rotate(45)"></circle><path d="M-227.78 122.24q.75.433 1.536.73.788.298 1.43.362l-.538.31q-.218.127-.73.046-.513-.08-1.181-.34-.669-.26-1.327-.64-.657-.38-1.108-.766-.45-.386-.59-.681-.138-.296.08-.422l.537-.31q.111.37.626.825.516.454 1.265.887zm-2.428 1.403q.749.432 1.536.73.788.297 1.43.361l-.538.31q-.218.127-.73.046-.513-.08-1.182-.34-.668-.26-1.326-.64-.657-.38-1.108-.766-.45-.386-.59-.681-.139-.296.08-.422l.537-.31q.11.37.626.825.516.454 1.265.887zm1.214-.701q.749.432 1.536.73.788.297 1.43.361l-.538.31q-.218.126-.73.046-.513-.08-1.181-.34-.669-.26-1.327-.64-.657-.38-1.108-.766-.45-.386-.59-.681-.138-.296.08-.422l.537-.31q.111.37.626.825.516.454 1.265.887zm3.642-2.103q.657.38 1.108.766.45.386.59.681.139.296-.08.422l-.404.234q-.218.126-.73.045-.513-.08-1.181-.34-.67-.26-1.327-.64-.657-.38-1.108-.766-.45-.386-.59-.681-.139-.296.08-.422l.404-.234q.218-.126.73-.045.513.08 1.182.34.668.26 1.326.64z" fill="#ffffff" stroke-width=".267"></path></g></svg></g></g><g opacity="1"><g id="32779139-fd49-45cd-bb2e-41d665688154" transform="translate(0 0)"><g><polygon points="-224 370, -160 407, -224 444, -288 407" fill="#fff"></polygon><polygon points="-288 444, -224 481, -224 444, -288 407" fill="#e6e6e6" stroke="#999"></polygon><polygon points="-224 481, -160 444, -160 407, -224 444" fill="#ccc" stroke="#999"></polygon><polygon points="-224 370, -288 407, -288 444, -224 481, -160 444, -160 407" fill="none" stroke="#000000" stroke-width="2"></polygon></g></g></g><g opacity="1"><g id="c38db07c-3a14-400a-993d-04fb376bcb62" transform="translate(0 0)"><svg x="-520" y="515" height="95.068" width="63" viewBox="0 0 16.669 25.153"><path d="M16.668 22.903q0 1.64-.864 2.091-.865.451-2.297-.376L3.161 18.645q-1.433-.827-2.297-2.276Q.001 14.921 0 13.28q0-.723.042-1.39.042-.666.166-1.394.124-.727.313-1.302.19-.575.51-1.039.319-.464.733-.683.414-.22 1.012-.147.598.073 1.32.49.107.06.497.58.391.52.882 1.165.491.646 1.279 1.394.788.75 1.58 1.207.793.458 1.58.618.788.161 1.28.083.49-.079.881-.147.39-.069.497-.007.722.416 1.32 1.035.598.619 1.013 1.315.414.697.734 1.531t.509 1.627q.19.793.313 1.664.124.872.166 1.586.042.713.042 1.438zM12.88 8.51q0 2.173-1.332 2.942-1.332.769-3.214-.318-1.882-1.086-3.214-3.393Q3.79 5.434 3.79 3.26q0-2.173 1.331-2.942 1.332-.77 3.214.317t3.214 3.394q1.332 2.306 1.332 4.48z" fill="#000" stroke="#000000" stroke-width=".268"></path></svg></g></g></g><g pointer-events="auto"><g opacity="1"><g id="de035e84-1a99-4f83-9330-66dc3cfdf75e" transform="translate(0 0)"><svg x="-224" y="407" overflow="visible"><g transform="scale(0.14150000000000001) matrix(0.707 0.409 -0.707 0.409 0 0)"><svg x="-200" y="-200" overflow="visible"><image xlink:href="https://images.cloudcraft.co/eb4eb933-0387-4dec-bb7f-a49374ab30af/logo.png" width="400" height="400"></image></svg></g></svg></g></g><g opacity="1"><g id="612d588b-89e4-4f9c-a38f-27692928ac35" transform="translate(0 0)"><svg x="16" y="268" overflow="visible"><g transform="scale(0.2830000000000002) matrix(0.707 0.409 -0.707 0.409 0 0)"><svg x="-118.5" y="-106.5" overflow="visible"><image xlink:href="https://images.cloudcraft.co/eb4eb933-0387-4dec-bb7f-a49374ab30af/Sem%20T%C3%ADtulo-1%20c%C3%B3pia.png" width="237" height="213"></image></svg></g></svg></g></g></g><g pointer-events="auto"><g opacity="1"><g id="38b850ef-69e2-436b-aac8-b4793c99eae2" transform="translate(0 0)"><svg x="-368" y="527" overflow="visible"><g transform="scale(1.118033988749895) matrix(0.707 0.409 -0.707 0.409 0 0)"><circle cx="0" cy="0" fill="#000000" r="23"></circle><svg width="21" height="32" x="-10.5" y="-16" style="fill: rgb(255, 255, 255);"><svg xmlns="http://www.w3.org/2000/svg" width="21" height="32" viewBox="0 0 21 32"><path d="M5.714 13.714h9.143v-3.429c0-2.518-2.054-4.571-4.571-4.571s-4.571 2.054-4.571 4.571v3.429zm14.857 1.715v10.286c0 .946-.768 1.714-1.714 1.714H1.714A1.715 1.715 0 0 1 0 25.715V15.429c0-.946.768-1.714 1.714-1.714h.571v-3.429c0-4.393 3.607-8 8-8s8 3.607 8 8v3.429h.571c.946 0 1.714.768 1.714 1.714z"></path></svg></svg></g></svg></g></g></g><g pointer-events="auto"><g opacity="1"><g id="5760f558-51f8-4818-84f6-76e4e99885bd"><svg x="144" y="416" overflow="visible"><text stroke="#ffffff" stroke-width="4" font-family="Open Sans" y="36.5" font-size="25pt" fill="#f5b720" font-weight="bold" transform="matrix(0.707 0.409 -0.707 0.409 0 0)" xml:space="preserve"><tspan x="8" dy="0">MYSQL</tspan></text><text font-family="Open Sans" y="36.5" font-size="25pt" fill="#f5b720" font-weight="bold" transform="matrix(0.707 0.409 -0.707 0.409 0 0)" xml:space="preserve"><tspan x="8" dy="0">MYSQL</tspan></text></svg></g></g><g opacity="1"><g id="081a400c-7e80-4631-abe6-0748dd377c1f"><svg x="-320" y="518" overflow="visible"><text stroke="#ffffff" stroke-width="4" font-family="Open Sans" y="36.5" font-size="25pt" fill="#f5b720" font-weight="bold" transform="matrix(0.707 0.409 -0.707 0.409 0 0)" xml:space="preserve"><tspan x="8" dy="0">Microsoft</tspan><tspan x="8" dy="1.1em">OAuth</tspan></text><text font-family="Open Sans" y="36.5" font-size="25pt" fill="#f5b720" font-weight="bold" transform="matrix(0.707 0.409 -0.707 0.409 0 0)" xml:space="preserve"><tspan x="8" dy="0">Microsoft</tspan><tspan x="8" dy="1.1em">OAuth</tspan></text></svg></g></g><g opacity="1"><g id="730b4117-15fc-485c-9e94-771bdb2f60d8" transform="translate(0 0)"><svg x="-560" y="564" overflow="visible"><text stroke="#ffffff" stroke-width="4" font-family="Open Sans" y="34.22" font-size="23pt" fill="#2a2a2a" font-weight="bold" transform="matrix(0.707 0.409 -0.707 0.409 0 0)" xml:space="preserve"><tspan x="8" dy="0">Funcionário</tspan></text><text font-family="Open Sans" y="34.22" font-size="23pt" fill="#2a2a2a" font-weight="bold" transform="matrix(0.707 0.409 -0.707 0.409 0 0)" xml:space="preserve"><tspan x="8" dy="0">Funcionário</tspan></text></svg></g></g><g opacity="1"><g id="64675f5a-3f36-48f0-8fc3-81d8f069677d" transform="translate(0 0)"><svg x="-448" y="463" overflow="visible"><text stroke="#ffffff" stroke-width="4" font-family="Open Sans" y="36.5" font-size="25pt" fill="#2a2a2a" font-weight="bold" transform="matrix(0.707 0.409 -0.707 0.409 0 0)" xml:space="preserve"><tspan x="8" dy="0">Login</tspan></text><text font-family="Open Sans" y="36.5" font-size="25pt" fill="#2a2a2a" font-weight="bold" transform="matrix(0.707 0.409 -0.707 0.409 0 0)" xml:space="preserve"><tspan x="8" dy="0">Login</tspan></text></svg></g></g><g opacity="1"><g id="ec8ef15d-8939-4865-bb98-e0794f206585"><svg x="-288" y="407" overflow="visible"><text stroke="#ffffff" stroke-width="0" font-family="Open Sans" y="36.5" font-size="25pt" fill="#555555" font-weight="bold" transform="matrix(0.707, 0.409, 0, 0.816, 0, 0)" xml:space="preserve"><tspan x="8" dy="0">VUE</tspan></text><text font-family="Open Sans" y="36.5" font-size="25pt" fill="#555555" font-weight="bold" transform="matrix(0.707, 0.409, 0, 0.816, 0, 0)" xml:space="preserve"><tspan x="8" dy="0">VUE</tspan></text></svg></g></g><g opacity="1"><g id="6020c273-4ea9-4731-a4fb-1493e4f656e9" transform="translate(0 0)"><svg x="144" y="472" overflow="visible"><text stroke="#ffffff" stroke-width="4" font-family="Open Sans" y="36.5" font-size="25pt" fill="#696969" font-weight="bold" transform="matrix(0.707 0.409 -0.707 0.409 0 0)" xml:space="preserve"><tspan x="8" dy="0">SA-EAST-1</tspan></text><text font-family="Open Sans" y="36.5" font-size="25pt" fill="#696969" font-weight="bold" transform="matrix(0.707 0.409 -0.707 0.409 0 0)" xml:space="preserve"><tspan x="8" dy="0">SA-EAST-1</tspan></text></svg></g></g><g opacity="1"><g id="b4069f2b-d726-437f-98f1-1db6f3b244ca" transform="translate(0 0)"><svg x="304" y="435" overflow="visible"><text stroke="#ffffff" stroke-width="0" font-family="Open Sans" y="36.5" font-size="25pt" fill="#414141" font-weight="bold" transform="matrix(0.707 0.409 -0.707 0.409 0 0)" xml:space="preserve"><tspan x="8" dy="0">Banco de</tspan><tspan x="8" dy="1.1em">Dados da</tspan><tspan x="8" dy="1.1em">Gerdau</tspan></text><text font-family="Open Sans" y="36.5" font-size="25pt" fill="#414141" font-weight="bold" transform="matrix(0.707 0.409 -0.707 0.409 0 0)" xml:space="preserve"><tspan x="8" dy="0">Banco de</tspan><tspan x="8" dy="1.1em">Dados da</tspan><tspan x="8" dy="1.1em">Gerdau</tspan></text></svg></g></g><g opacity="1"><g id="8a1318c4-95a6-4177-bd68-6c549153dfe7" transform="translate(0 0)"><svg x="-160" y="278" overflow="visible"><text stroke="#ffffff" stroke-width="4" font-family="Open Sans" y="36.5" font-size="25pt" fill="#414141" font-weight="bold" transform="matrix(0.707 -0.409 0.707 0.409 0 0)" xml:space="preserve"><tspan x="8" dy="0">BACK END</tspan></text><text font-family="Open Sans" y="36.5" font-size="25pt" fill="#414141" font-weight="bold" transform="matrix(0.707 -0.409 0.707 0.409 0 0)" xml:space="preserve"><tspan x="8" dy="0">BACK END</tspan></text></svg></g></g><g opacity="1"><g id="1583bfa6-0383-4512-bc22-6293b852e35f" transform="translate(0 0)"><svg x="-416" y="426" overflow="visible"><text stroke="#ffffff" stroke-width="0" font-family="Open Sans" y="36.5" font-size="25pt" fill="#414141" font-weight="bold" transform="matrix(0.707 -0.409 0.707 0.409 0 0)" xml:space="preserve"><tspan x="8" dy="0">FRONT END</tspan></text><text font-family="Open Sans" y="36.5" font-size="25pt" fill="#414141" font-weight="bold" transform="matrix(0.707 -0.409 0.707 0.409 0 0)" xml:space="preserve"><tspan x="8" dy="0">FRONT END</tspan></text></svg></g></g><g opacity="1"><g id="33d719dd-9227-4b4a-8cab-a2e0b61a25e0"><svg x="-52" y="269" overflow="visible"><text stroke="#ffffff" stroke-width="0" font-family="Open Sans" y="26.24" font-size="16pt" fill="#4e4e4e" font-weight="bold" transform="matrix(0.707, 0.409, 0, 0.816, 0, 0)" xml:space="preserve"><tspan x="8" dy="0">SPRING</tspan></text><text font-family="Open Sans" y="26.24" font-size="16pt" fill="#4e4e4e" font-weight="bold" transform="matrix(0.707, 0.409, 0, 0.816, 0, 0)" xml:space="preserve"><tspan x="8" dy="0">SPRING</tspan></text></svg></g></g><g opacity="1"><g id="171b0405-54d4-4850-bb70-62496013b09b" transform="translate(0 0)"><svg x="-144" y="398" overflow="visible"><text stroke="#ffffff" stroke-width="4" font-family="Open Sans" y="36.5" font-size="25pt" fill="#484847" font-weight="bold" transform="matrix(0.707 -0.409 0.707 0.409 0 0)" xml:space="preserve"><tspan x="8" dy="0">AXIOS</tspan></text><text font-family="Open Sans" y="36.5" font-size="25pt" fill="#484847" font-weight="bold" transform="matrix(0.707 -0.409 0.707 0.409 0 0)" xml:space="preserve"><tspan x="8" dy="0">AXIOS</tspan></text></svg></g></g><g opacity="1"><g id="be09ad56-e16a-479b-a686-e4acb81aa445" transform="translate(0 0)"><svg x="96" y="352" overflow="visible"><text stroke="#ffffff" stroke-width="4" font-family="Open Sans" y="36.5" font-size="25pt" fill="#484847" font-weight="bold" transform="matrix(0.707 0.409 -0.707 0.409 0 0)" xml:space="preserve"><tspan x="8" dy="0">JPA</tspan></text><text font-family="Open Sans" y="36.5" font-size="25pt" fill="#484847" font-weight="bold" transform="matrix(0.707 0.409 -0.707 0.409 0 0)" xml:space="preserve"><tspan x="8" dy="0">JPA</tspan></text></svg></g></g></g><g></g></g></svg>